<svg width="271" height="134" viewBox="0 0 271 134" xmlns="http://www.w3.org/2000/svg"><title>logo-white</title><g fill="#2A2A2A" fill-rule="evenodd" id="app-icon"><path d="M167.6 36.3v1.3c0 3.8-1.2 6.3-3.8 7.5 3.1 1.2 4.4 4.1 4.4 8v3c0 5.8-3 8.9-8.9 8.9h-9.2V27.7h8.9c6 0 8.6 2.8 8.6 8.6zm-11.7-3.2V43h2.3c2.2 0 3.5-1 3.5-3.9V37c0-2.7-.9-3.8-3-3.8h-2.8v-.1zm0 15.2v11.5h3.4c2 0 3-.9 3-3.7v-3.3c0-3.5-1.1-4.5-3.8-4.5h-2.6zM176.1 52.7l-7.4-25h6.1l4.5 17 4.5-17h5.6l-7.4 25v12.4h-5.9V52.7M21.9 46.5l6.9-45.4h14v64h-9.5V19.2l-6.9 45.9h-9.5L9.4 19.9v45.2H.5v-64h14M82.7 1.1h15.9c10.1 0 15 5.6 15 15.8v32.3c0 10.2-4.9 15.8-15 15.8H82.7V1.1zm10.1 9.1v45.7h5.7c3.2 0 5.1-1.6 5.1-6.2V16.4c0-4.6-1.9-6.2-5.1-6.2h-5.7zM127 28h13.8v9.1H127v18.7h17.4v9.1H117V.9h27.4V10H127M70.1 1.1H55.4l-10.3 64h9.3l1.7-11.7 1.3-8.6 4.8-32.4 4.9 32.4h-7.9L58 53.4h10.5l1.7 11.7h10.1"/><g><path d="M21.9 114l6.9-45.4h14v64h-9.5V86.7l-6.9 45.9h-9.5L9.4 87.4v45.2H.5v-64h14M56.5 68.6v49.3c0 4.6 2 6.2 5.2 6.2s5.2-1.6 5.2-6.2V68.6h9.5v48.7c0 10.2-5.1 16.1-15 16.1s-15-5.9-15-16.1V68.6h10.1zM89.1 86.2v46.3h-9v-64h12.6l10.3 38.3V68.6h9v64h-10.3M187.8 95.5h13.8v9.1h-13.8v18.7h17.4v9.1h-27.4v-64h27.4v9.1h-17.4M229 132.6c-.5-1.6-.9-2.6-.9-7.9v-10c0-5.9-2-8.1-6.6-8.1H218v26h-10v-64h15.2c10.4 0 14.9 4.8 14.9 14.7v5c0 6.6-2.1 10.9-6.6 13 5 2.1 6.7 6.9 6.7 13.6v9.9c0 3.1.1 5.4 1.1 7.8H229zm-11-54.9v19.6h3.9c3.7 0 6-1.6 6-6.8v-6.3c0-4.6-1.6-6.6-5.1-6.6H218v.1zM256.1 67.9c9.8 0 14.8 5.8 14.8 16.1v2.5h-9.5v-3.1c0-4.6-1.8-6.3-5-6.3s-5 1.7-5 6.3c0 13.2 19.6 15.6 19.6 33.9 0 10.2-5.1 16.1-15 16.1s-15-5.8-15-16.1v-4.4h9.5v5c0 4.6 2 6.2 5.2 6.2s5.2-1.6 5.2-6.2c0-13.2-19.6-15.6-19.6-33.9 0-10.3 5-16.1 14.8-16.1zM139.7 68.6v.2c4.2 1.4 6.2 4.9 6.8 9h7.5v54.8h10.1V77.7h10.5v-9.1h-34.9z"/><path d="M129.9 67.9c9.8 0 14.8 5.8 14.8 16.1v2.5h-9.5v-3.1c0-4.6-1.8-6.3-5-6.3s-5 1.7-5 6.3c0 13.2 19.7 15.6 19.7 33.9 0 10.2-5.1 16.1-15 16.1s-15-5.8-15-16.1v-4.4h9.5v5c0 4.6 2 6.2 5.2 6.2s5.2-1.6 5.2-6.2c0-13.2-19.7-15.6-19.7-33.9 0-10.3 5-16.1 14.8-16.1z"/></g></g></svg>
