<svg width="18" height="18" viewBox="0 0 18 18" xmlns="http://www.w3.org/2000/svg">
  <path d="M16 0H2C.895 0 0 .895 0 2v14c0 1.105.895 2 2 2h14c1.105 0 2-.895 2-2V2c0-1.105-.895-2-2-2zm-1.95 6.514v.343c0 3.257-2.486 7.029-7.029 7.029-1.371 0-2.657-.429-3.771-1.114h.6c1.114 0 2.229-.429 3.086-1.029-1.114 0-1.971-.771-2.314-1.714.171 0 .343.086.429.086.257 0 .429 0 .686-.086-1.114-.257-1.971-1.2-1.971-2.4.343.171.686.257 1.114.343-.686-.6-1.114-1.286-1.114-2.143 0-.429.086-.857.343-1.2 1.2 1.457 3 2.486 5.057 2.571 0-.171-.086-.343-.086-.6 0-1.371 1.114-2.486 2.486-2.486.686 0 1.371.257 1.8.771.6-.086 1.114-.343 1.543-.6-.171.6-.6 1.029-1.114 1.371.514-.086.943-.171 1.457-.429-.345.516-.773.944-1.202 1.287z" fill="#2A2A2A" fill-rule="nonzero"/>
</svg>
